<svg xmlns="http://www.w3.org/2000/svg" viewBox="0 0 64 64">
  <defs>
    <linearGradient id="bg" x1="0" x2="1" y1="0" y2="1">
      <stop offset="0%" stop-color="#0b1530"/>
      <stop offset="100%" stop-color="#1d4ed8"/>
    </linearGradient>
  </defs>
  <rect width="64" height="64" rx="14" fill="url(#bg)"/>
  <path d="M32 11c-7 0-16 4-16 13v8c0 12 10 20 16 20s16-8 16-20v-8c0-9-9-13-16-13Z" fill="#fff4ec"/>
  <path d="M22 16c-4 1-8 5-8 10v3c0 2 2 3 4 2l6-4-2-11Z" fill="#9a4d1d"/>
  <path d="M42 16c4 1 8 5 8 10v3c0 2-2 3-4 2l-6-4 2-11Z" fill="#9a4d1d"/>
  <path d="M32 14c-4 0-8 1-11 4l2 14c0 5 4 11 9 11s9-6 9-11l2-14c-3-3-7-4-11-4Z" fill="#c8742c"/>
  <path d="M32 14c-2 0-4 1-5 2l1 9c0 3 2 6 4 6s4-3 4-6l1-9c-1-1-3-2-5-2Z" fill="#ffffff"/>
  <circle cx="24" cy="28" r="3.2" fill="#1f2937"/>
  <circle cx="40" cy="28" r="3.2" fill="#1f2937"/>
  <circle cx="25" cy="27" r="1" fill="#fff"/>
  <circle cx="41" cy="27" r="1" fill="#fff"/>
  <path d="M32 30c-3 0-6 2-6 5 0 4 3 7 6 7s6-3 6-7c0-3-3-5-6-5Z" fill="#fff"/>
  <path d="M32 31.5c-2.4 0-4.6 1.2-4.6 3.4 0 1.9 2 3.6 4.6 3.6s4.6-1.7 4.6-3.6c0-2.2-2.2-3.4-4.6-3.4Z" fill="#f5d9cb"/>
  <path d="M32 31.5c1.6 0 3.4 1 3.4 2.7 0 1.7-1.5 3-3.4 3s-3.4-1.3-3.4-3c0-1.7 1.8-2.7 3.4-2.7Z" fill="#2f241f"/>
  <path d="M27.5 39.5c1.6 1.8 3 2.7 4.5 2.7s2.9-.9 4.5-2.7" fill="none" stroke="#9a4d1d" stroke-linecap="round" stroke-width="2"/>
  <path d="M11 51h42" stroke="#ffffff" stroke-opacity=".16" stroke-width="2"/>
</svg>
